<svg xmlns="http://www.w3.org/2000/svg" viewBox="0 0 1280 593" preserveAspectRatio="xMidYMid" width="1280" height="593" xmlns:xlink="http://www.w3.org/1999/xlink" style="shape-rendering:auto;display:block;background-position-x:0%;background-position-y:0%;background-size:auto;background-origin:padding-box;background-clip:border-box;background:scroll rgb(255, 255, 255) none  repeat;width:1280px;height:593px;;animation:none"><g><linearGradient y2="0" y1="0" x2="1" x1="0" id="lg-o578w6yh81n"><stop offset="0" stop-color="#f8846b"></stop>

  
<stop offset="1" stop-color="#a1a4a4"></stop></linearGradient>
<path opacity="0.4" fill="url(#lg-o578w6yh81n)" d="M 0 0 L 0 401.27 Q 128 389.57 256 369.56 T 512 282.74 T 768 255.7 T 1024 296.36 T 1280 234.99 L 1280 0 Z" style="fill:url('#lg-o578w6yh81n');opacity:0.4;;animation:none"></path>
<path opacity="0.4" fill="url(#lg-o578w6yh81n)" d="M 0 0 L 0 370.737 Q 128 364.356 256 339.535 T 512 296.495 T 768 242.312 T 1024 193.686 T 1280 194.012 L 1280 0 Z" style="fill:url('#lg-o578w6yh81n');opacity:0.4;;animation:none"></path>
<path opacity="0.4" fill="url(#lg-o578w6yh81n)" d="M 0 0 L 0 380.14 Q 128 422.082 256 397.861 T 512 265.547 T 768 289.531 T 1024 224.516 T 1280 183.066 L 1280 0 Z" style="fill:url('#lg-o578w6yh81n');opacity:0.4;;animation:none"></path>
<path opacity="0.4" fill="url(#lg-o578w6yh81n)" d="M 0 0 L 0 405.652 Q 128 356.23 256 331.508 T 512 346.348 T 768 269.925 T 1024 294.003 T 1280 231.529 L 1280 0 Z" style="fill:url('#lg-o578w6yh81n');opacity:0.4;;animation:none"></path>
<path opacity="0.4" fill="url(#lg-o578w6yh81n)" d="M 0 0 L 0 424.55 Q 128 368.095 256 346.747 T 512 292.055 T 768 300.075 T 1024 189.049 T 1280 148.594 L 1280 0 Z" style="fill:url('#lg-o578w6yh81n');opacity:0.4;;animation:none"></path>
<g></g></g><!-- [ldio] generated by https://loading.io --></svg>